<?xml version="1.0" encoding="UTF-8"?>
<svg width="48px" height="48px" viewBox="0 0 48 48" version="1.1" xmlns="http://www.w3.org/2000/svg" xmlns:xlink="http://www.w3.org/1999/xlink">
    <!-- Generator: Sketch 58 (84663) - https://sketch.com -->
    <title>arrive_right</title>
    <desc>Created with Sketch.</desc>
    <g id="arrive_right" stroke="none" stroke-width="1" fill="none" fill-rule="evenodd">
        <path d="M17.2403796,7.16502946 L17.3406916,7.24074513 L31,18.9481265 L17.3406916,30.6555078 C17.069093,30.8882948 16.6938371,30.9582801 16.356586,30.8390439 C15.8730797,30.6680986 15.6032615,30.163246 15.7145796,29.6750955 L15.7471103,29.5629015 L18.42,22 L17,22 C13.1340068,22 10,25.1340068 10,29 L10,42 L4,42 L4,29 C4,21.8202983 9.82029825,16 17,16 L18.457,16 L15.7471103,8.33335147 C15.6427786,8.03825678 15.6833196,7.71406468 15.8510342,7.45567764 L15.9306463,7.34924591 C16.2624109,6.96216754 16.8258426,6.89100084 17.2403796,7.16502946 Z M40,14 C42.7614237,14 45,16.2385763 45,19 C45,21.7614237 42.7614237,24 40,24 C37.2385763,24 35,21.7614237 35,19 C35,16.2385763 37.2385763,14 40,14 Z" id="primary" fill="#000000" fill-rule="nonzero"></path>
    </g>
</svg>