<?xml version="1.0" encoding="UTF-8"?>
<svg width="48px" height="48px" viewBox="0 0 48 48" version="1.1" xmlns="http://www.w3.org/2000/svg" xmlns:xlink="http://www.w3.org/1999/xlink">
    <!-- Generator: Sketch 58 (84663) - https://sketch.com -->
    <title>arrive_straight</title>
    <desc>Created with Sketch.</desc>
    <g id="arrive_straight" stroke="none" stroke-width="1" fill="none" fill-rule="evenodd">
        <path d="M23.9481265,17 L35.6555078,30.6593084 C35.8882948,30.930907 35.9582801,31.3061629 35.8390439,31.643414 C35.6680986,32.1269203 35.163246,32.3967385 34.6750955,32.2854204 L34.5629015,32.2528897 L27,29.579 L27,45 L21,45 L21,29.542 L13.3333515,32.2528897 C13.0382568,32.3572214 12.7140647,32.3166804 12.4556776,32.1489658 L12.3492459,32.0693537 C11.9621675,31.7375891 11.8910008,31.1741574 12.1650295,30.7596204 L12.2407451,30.6593084 L23.9481265,17 Z M24,4 C26.7614237,4 29,6.23857625 29,9 C29,11.7614237 26.7614237,14 24,14 C21.2385763,14 19,11.7614237 19,9 C19,6.23857625 21.2385763,4 24,4 Z" id="primary" fill="#000000" fill-rule="nonzero"></path>
    </g>
</svg>