<?xml version="1.0" encoding="UTF-8"?>
<svg width="48px" height="48px" viewBox="0 0 48 48" version="1.1" xmlns="http://www.w3.org/2000/svg" xmlns:xlink="http://www.w3.org/1999/xlink">
    <!-- Generator: Sketch 58 (84663) - https://sketch.com -->
    <title>arrive_left</title>
    <desc>Created with Sketch.</desc>
    <g id="arrive_left" stroke="none" stroke-width="1" fill="none" fill-rule="evenodd">
        <path d="M32.0693537,7.34924591 C32.3021406,7.62084453 32.372126,7.9961004 32.2528897,8.33335147 L29.541,16 L31,16 C38.0771346,16 43.8334283,21.6551918 43.9964496,28.6931438 L44,29 L44,42 L38,42 L38,29 C38,25.2145483 34.9952166,22.1309013 31.2406498,22.004059 L31,22 L29.578,22 L32.2528897,29.5629015 C32.4369846,30.0836005 32.164113,30.6549489 31.643414,30.8390439 C31.3061629,30.9582801 30.930907,30.8882948 30.6593084,30.6555078 L17,18.9481265 L30.6593084,7.24074513 C31.0786433,6.88133355 31.7099421,6.92991101 32.0693537,7.34924591 Z M8,14 C10.7614237,14 13,16.2385763 13,19 C13,21.7614237 10.7614237,24 8,24 C5.23857625,24 3,21.7614237 3,19 C3,16.2385763 5.23857625,14 8,14 Z" id="primary" fill="#000000" fill-rule="nonzero"></path>
    </g>
</svg>