<?xml version="1.0" encoding="UTF-8"?>
<svg width="48px" height="48px" viewBox="0 0 48 48" version="1.1" xmlns="http://www.w3.org/2000/svg" xmlns:xlink="http://www.w3.org/1999/xlink">
    <!-- Generator: Sketch 58 (84663) - https://sketch.com -->
    <title>bidirectional</title>
    <desc>Created with Sketch.</desc>
    <g id="bidirectional" stroke="none" stroke-width="1" fill="none" fill-rule="evenodd">
        <path d="M23.9481265,3 L35.6555078,16.6593084 C35.8882948,16.930907 35.9582801,17.3061629 35.8390439,17.643414 C35.6680986,18.1269203 35.163246,18.3967385 34.6750955,18.2854204 L34.5629015,18.2528897 L27,15.578 L27,32.421 L34.5629015,29.7471103 C35.0836005,29.5630154 35.6549489,29.835887 35.8390439,30.356586 C35.9582801,30.6938371 35.8882948,31.069093 35.6555078,31.3406916 L23.9481265,45 L12.2407451,31.3406916 C11.8813336,30.9213567 11.929911,30.2900579 12.3492459,29.9306463 C12.6208445,29.6978594 12.9961004,29.627874 13.3333515,29.7471103 L21,32.458 L21,15.541 L13.3333515,18.2528897 C13.0382568,18.3572214 12.7140647,18.3166804 12.4556776,18.1489658 L12.3492459,18.0693537 C11.9621675,17.7375891 11.8910008,17.1741574 12.1650295,16.7596204 L12.2407451,16.6593084 L23.9481265,3 Z" id="primary" fill="#000000" fill-rule="nonzero"></path>
    </g>
</svg>