<?xml version="1.0" encoding="UTF-8"?>
<svg width="48px" height="48px" viewBox="0 0 48 48" version="1.1" xmlns="http://www.w3.org/2000/svg" xmlns:xlink="http://www.w3.org/1999/xlink">
    <!-- Generator: Sketch 58 (84663) - https://sketch.com -->
    <title>depart_right</title>
    <desc>Created with Sketch.</desc>
    <g id="depart_right" stroke="none" stroke-width="1" fill="none" fill-rule="evenodd">
        <path d="M15,36 C17.7614237,36 20,38.2385763 20,41 C20,43.7614237 17.7614237,46 15,46 C12.2385763,46 10,43.7614237 10,41 C10,38.2385763 12.2385763,36 15,36 Z M27.2403796,3.16502946 L27.3406916,3.24074513 L41,14.9481265 L27.3406916,26.6555078 C27.069093,26.8882948 26.6938371,26.9582801 26.356586,26.8390439 C25.8730797,26.6680986 25.6032615,26.163246 25.7145796,25.6750955 L25.7471103,25.5629015 L28.42,18 L25,18 C21.1340068,18 18,21.1340068 18,25 L18,32 L12,32 L12,25 C12,17.8202983 17.8202983,12 25,12 L28.457,12 L25.7471103,4.33335147 C25.6427786,4.03825678 25.6833196,3.71406468 25.8510342,3.45567764 L25.9306463,3.34924591 C26.2347638,2.99442407 26.7335461,2.90505579 27.1338636,3.10369693 L27.2403796,3.16502946 Z" id="primary" fill="#000000" fill-rule="nonzero"></path>
    </g>
</svg>