<?xml version="1.0" encoding="UTF-8"?>
<svg width="48px" height="48px" viewBox="0 0 48 48" version="1.1" xmlns="http://www.w3.org/2000/svg" xmlns:xlink="http://www.w3.org/1999/xlink">
    <!-- Generator: Sketch 58 (84663) - https://sketch.com -->
    <title>depart_straight</title>
    <desc>Created with Sketch.</desc>
    <g id="depart_straight" stroke="none" stroke-width="1" fill="none" fill-rule="evenodd">
        <path d="M24,36 C26.7614237,36 29,38.2385763 29,41 C29,43.7614237 26.7614237,46 24,46 C21.2385763,46 19,43.7614237 19,41 C19,38.2385763 21.2385763,36 24,36 Z M23.9481265,4 L35.6555078,17.6593084 C35.8882948,17.930907 35.9582801,18.3061629 35.8390439,18.643414 C35.6680986,19.1269203 35.163246,19.3967385 34.6750955,19.2854204 L34.5629015,19.2528897 L27,16.579 L27,32 L21,32 L21,16.542 L13.3333515,19.2528897 C13.0382568,19.3572214 12.7140647,19.3166804 12.4556776,19.1489658 L12.3492459,19.0693537 C11.9621675,18.7375891 11.8910008,18.1741574 12.1650295,17.7596204 L12.2407451,17.6593084 L23.9481265,4 Z" id="primary" fill="#000000" fill-rule="nonzero"></path>
    </g>
</svg>