<?xml version="1.0" encoding="UTF-8"?>
<svg width="48px" height="48px" viewBox="0 0 48 48" version="1.1" xmlns="http://www.w3.org/2000/svg" xmlns:xlink="http://www.w3.org/1999/xlink">
    <!-- Generator: Sketch 58 (84663) - https://sketch.com -->
    <title>end_of_road_left</title>
    <desc>Created with Sketch.</desc>
    <g id="end_of_road_left" stroke="none" stroke-width="1" fill="none" fill-rule="evenodd">
        <polygon id="secondary" fill="#000000" fill-rule="nonzero" opacity="0.3" points="41 16 13 16 13 22 41 22"></polygon>
        <path d="M20.2528897,29.5629015 C20.4369846,30.0836005 20.164113,30.6549489 19.643414,30.8390439 C19.3061629,30.9582801 18.930907,30.8882948 18.6593084,30.6555078 L5,18.9481265 L18.6593084,7.24074513 C19.0786433,6.88133355 19.7099421,6.92991101 20.0693537,7.34924591 C20.3021406,7.62084453 20.372126,7.9961004 20.2528897,8.33335147 L17.542,15.999 L21,16 C25.3349143,16 28.8645429,19.4478378 28.9961932,23.7508207 L29,24 L29,42 L23,42 L23,24 C23,22.9456382 22.1841222,22.0818349 21.1492623,22.0054857 L21,22 L17.579,21.999 L20.2528897,29.5629015 Z" id="primary" fill="#000000" fill-rule="nonzero"></path>
    </g>
</svg>