<?xml version="1.0" encoding="UTF-8"?>
<svg width="48px" height="48px" viewBox="0 0 48 48" version="1.1" xmlns="http://www.w3.org/2000/svg" xmlns:xlink="http://www.w3.org/1999/xlink">
    <!-- Generator: Sketch 58 (84663) - https://sketch.com -->
    <title>exit_left</title>
    <desc>Created with Sketch.</desc>
    <g id="exit_left" stroke="none" stroke-width="1" fill="none" fill-rule="evenodd">
        <polygon id="secondary" fill="#000000" fill-rule="nonzero" opacity="0.3" points="36 34 36 6 30 6 30 34"></polygon>
        <path d="M22.2528897,29.5629015 C22.4369846,30.0836005 22.164113,30.6549489 21.643414,30.8390439 C21.3061629,30.9582801 20.930907,30.8882948 20.6593084,30.6555078 L7,18.9481265 L20.6593084,7.24074513 C21.0786433,6.88133355 21.7099421,6.92991101 22.0693537,7.34924591 C22.3021406,7.62084453 22.372126,7.9961004 22.2528897,8.33335147 L19.541,16 L23,16 C30.0771346,16 35.8334283,21.6551918 35.9964496,28.6931438 L36,29 L36,42 L30,42 L30,29 C30,25.2145483 26.9952166,22.1309013 23.2406498,22.004059 L23,22 L19.578,22 L22.2528897,29.5629015 Z" id="primary" fill="#000000" fill-rule="nonzero"></path>
    </g>
</svg>