<?xml version="1.0" encoding="UTF-8"?>
<svg width="48px" height="48px" viewBox="0 0 48 48" version="1.1" xmlns="http://www.w3.org/2000/svg" xmlns:xlink="http://www.w3.org/1999/xlink">
    <!-- Generator: Sketch 58 (84663) - https://sketch.com -->
    <title>fork_slight_left</title>
    <desc>Created with Sketch.</desc>
    <g id="fork_slight_left" stroke="none" stroke-width="1" fill="none" fill-rule="evenodd">
        <path d="M22,42 L22,29.1421356 C22,25.6943213 23.3696389,22.3877204 25.8076118,19.9497475 L33.4852814,12.2720779 L37.7279221,16.5147186 L30.0502525,24.1923882 C28.7374979,25.5051428 28,27.2856202 28,29.1421356 L28,42 L22,42 Z" id="secondary" fill="#000000" fill-rule="nonzero" opacity="0.3"></path>
        <path d="M6.65190381,6.57854357 L24.5888622,7.95876444 C25.1395191,8.00113663 25.5515653,8.48188171 25.5091931,9.03253863 C25.4817491,9.38919308 25.2658902,9.70402616 24.9431049,9.85818592 L17.6049038,13.3625436 L24.1923882,19.9497475 C26.5432906,22.3006499 27.900806,25.4592434 27.9947728,28.7733004 L28,29.1421356 L28,42 L22,42 L22,29.1421356 C22,27.3887599 21.3421701,25.7032083 20.1631856,24.4154442 L19.9497475,24.1923882 L13.3879038,17.6305436 L9.93154616,24.8697447 C9.69353109,25.3681093 9.09657742,25.5791643 8.59821282,25.3411492 C8.27542753,25.1869895 8.05956868,24.8721564 8.03212468,24.5155019 L6.65190381,6.57854357 Z" id="primary" fill="#000000" fill-rule="nonzero"></path>
    </g>
</svg>