<?xml version="1.0" encoding="UTF-8"?>
<svg width="48px" height="48px" viewBox="0 0 48 48" version="1.1" xmlns="http://www.w3.org/2000/svg" xmlns:xlink="http://www.w3.org/1999/xlink">
    <!-- Generator: Sketch 58 (84663) - https://sketch.com -->
    <title>fork_slight_right</title>
    <desc>Created with Sketch.</desc>
    <g id="fork_slight_right" stroke="none" stroke-width="1" fill="none" fill-rule="evenodd">
        <path d="M26,42 L26,29.1421356 C26,25.6943213 24.6303611,22.3877204 22.1923882,19.9497475 L14.5147186,12.2720779 L10.2720779,16.5147186 L17.9497475,24.1923882 C19.2625021,25.5051428 20,27.2856202 20,29.1421356 L20,42 L26,42 Z" id="secondary" fill="#000000" fill-rule="nonzero" opacity="0.3"></path>
        <path d="M41.3480962,6.57854357 L23.4111378,7.95876444 C22.8604809,8.00113663 22.4484347,8.48188171 22.4908069,9.03253863 C22.5182509,9.38919308 22.7341098,9.70402616 23.0568951,9.85818592 L30.3950962,13.3625436 L23.8076118,19.9497475 C21.4567094,22.3006499 20.099194,25.4592434 20.0052272,28.7733004 L20,29.1421356 L20,42 L26,42 L26,29.1421356 C26,27.3887599 26.6578299,25.7032083 27.8368144,24.4154442 L28.0502525,24.1923882 L34.6120962,17.6305436 L38.0684538,24.8697447 C38.3064689,25.3681093 38.9034226,25.5791643 39.4017872,25.3411492 C39.7245725,25.1869895 39.9404313,24.8721564 39.9678753,24.5155019 L41.3480962,6.57854357 Z" id="primary" fill="#000000" fill-rule="nonzero"></path>
    </g>
</svg>