<?xml version="1.0" encoding="UTF-8"?>
<svg width="48px" height="48px" viewBox="0 0 48 48" version="1.1" xmlns="http://www.w3.org/2000/svg" xmlns:xlink="http://www.w3.org/1999/xlink">
    <!-- Generator: Sketch 58 (84663) - https://sketch.com -->
    <title>fork_left</title>
    <desc>Created with Sketch.</desc>
    <g id="fork_left" stroke="none" stroke-width="1" fill="none" fill-rule="evenodd">
        <path d="M34,42 L34,33.2842712 C34,28.7755909 35.7910663,24.4515744 38.9791847,21.263456 L43.1213203,17.1213203 L38.8786797,12.8786797 L34.736544,17.0208153 C30.4232073,21.334152 28,27.184292 28,33.2842712 L28,42 L34,42 Z" id="secondary" fill="#000000" fill-rule="nonzero" opacity="0.3"></path>
        <path d="M20.2528897,29.5629015 C20.4369846,30.0836005 20.164113,30.6549489 19.643414,30.8390439 C19.3061629,30.9582801 18.930907,30.8882948 18.6593084,30.6555078 L5,18.9481265 L18.6593084,7.24074513 C19.0786433,6.88133355 19.7099421,6.92991101 20.0693537,7.34924591 C20.3021406,7.62084453 20.372126,7.9961004 20.2528897,8.33335147 L17.541,16 L21,16 C28.0771346,16 33.8334283,21.6551918 33.9964496,28.6931438 L34,29 L34,42 L28,42 L28,29 C28,25.2145483 24.9952166,22.1309013 21.2406498,22.004059 L21,22 L17.578,22 L20.2528897,29.5629015 Z" id="primary" fill="#000000" fill-rule="nonzero"></path>
    </g>
</svg>