<?xml version="1.0" encoding="UTF-8"?>
<svg width="48px" height="48px" viewBox="0 0 48 48" version="1.1" xmlns="http://www.w3.org/2000/svg" xmlns:xlink="http://www.w3.org/1999/xlink">
    <!-- Generator: Sketch 58 (84663) - https://sketch.com -->
    <title>fork_right</title>
    <desc>Created with Sketch.</desc>
    <g id="fork_right" stroke="none" stroke-width="1" fill="none" fill-rule="evenodd">
        <path d="M14.1213203,42.1213203 L14.1213203,33.4055916 C14.1213203,28.8969113 12.3302541,24.5728947 9.14213562,21.3847763 L5,17.2426407 L9.24264069,13 L13.3847763,17.1421356 C17.698113,21.4554723 20.1213203,27.3056123 20.1213203,33.4055916 L20.1213203,42.1213203 L14.1213203,42.1213203 Z" id="secondary" fill="#000000" fill-rule="nonzero" opacity="0.3"></path>
        <path d="M27.8510342,7.45567764 L27.9306463,7.34924591 C28.2624109,6.96216754 28.8258426,6.89100084 29.2403796,7.16502946 L29.3406916,7.24074513 L43,18.9481265 L29.3406916,30.6555078 C29.069093,30.8882948 28.6938371,30.9582801 28.356586,30.8390439 C27.8730797,30.6680986 27.6032615,30.163246 27.7145796,29.6750955 L27.7471103,29.5629015 L30.421,21.999 L27,22 C23.1340068,22 20,25.1340068 20,29 L20,42 L14,42 L14,29 C14,21.8202983 19.8202983,16 27,16 L30.457,15.999 L27.7471103,8.33335147 C27.6427786,8.03825678 27.6833196,7.71406468 27.8510342,7.45567764 L27.9306463,7.34924591 L27.8510342,7.45567764 Z" id="primary" fill="#000000" fill-rule="nonzero"></path>
    </g>
</svg>