<?xml version="1.0" encoding="UTF-8"?>
<svg width="48px" height="48px" viewBox="0 0 48 48" version="1.1" xmlns="http://www.w3.org/2000/svg" xmlns:xlink="http://www.w3.org/1999/xlink">
    <!-- Generator: Sketch 58 (84663) - https://sketch.com -->
    <title>fork_straight</title>
    <desc>Created with Sketch.</desc>
    <g id="fork_straight" stroke="none" stroke-width="1" fill="none" fill-rule="evenodd">
        <path d="M41.2174256,36.7009978 L41.5999971,36.8040654 L42.395614,37.0103365 L40.8898411,42.8183179 L40.0942242,42.6120468 C33.2616277,40.8406329 27.553246,36.4704841 23.9998241,30.5746497 C20.446754,36.4704841 14.7383723,40.8406329 7.90577583,42.6120468 L7.11015892,42.8183179 L5.60438597,37.0103365 L6.40000288,36.8040654 C13.3124613,35.0119466 18.8235989,29.8012536 21,23 L27,23 C29.1360974,29.6753044 34.484566,34.8184125 41.2174256,36.7009978 Z" id="secondary" fill="#000000" fill-rule="nonzero" opacity="0.3" transform="translate(24.000000, 32.909159) scale(1, -1) translate(-24.000000, -32.909159) "></path>
        <path d="M23.9481265,4 L35.6555078,17.6593084 C35.8882948,17.930907 35.9582801,18.3061629 35.8390439,18.643414 C35.6680986,19.1269203 35.163246,19.3967385 34.6750955,19.2854204 L34.5629015,19.2528897 L27,16.578 L27,43 L21,43 L21,16.541 L13.3333515,19.2528897 C13.0382568,19.3572214 12.7140647,19.3166804 12.4556776,19.1489658 L12.3492459,19.0693537 C11.9621675,18.7375891 11.8910008,18.1741574 12.1650295,17.7596204 L12.2407451,17.6593084 L23.9481265,4 Z" id="primary" fill="#000000" fill-rule="nonzero"></path>
    </g>
</svg>