<?xml version="1.0" encoding="UTF-8"?>
<svg width="48px" height="48px" viewBox="0 0 48 48" version="1.1" xmlns="http://www.w3.org/2000/svg" xmlns:xlink="http://www.w3.org/1999/xlink">
    <!-- Generator: Sketch 58 (84663) - https://sketch.com -->
    <title>fork</title>
    <desc>Created with Sketch.</desc>
    <g id="fork" stroke="none" stroke-width="1" fill="none" fill-rule="evenodd">
        <path d="M27,42 L21,42 L20.999,30.116 L20.9931991,29.8334876 C20.9208049,28.1918362 20.2728181,26.6274575 19.1631856,25.4154442 L18.9497475,25.1923882 L9.664,15.907 L7.43448029,20.5774362 C7.25780158,20.9473689 6.81468255,21.1040336 6.44474624,20.9273566 C6.20514254,20.8129248 6.0449104,20.5792264 6.0245387,20.3144841 L5,7 L18.3146139,8.02452871 C18.7233668,8.05598131 19.0292289,8.41283516 18.997776,8.82158411 C18.9774043,9.08632632 18.8171722,9.32002481 18.5775685,9.43445657 L13.907,11.664 L23.1923882,20.9497475 C23.4766748,21.2340341 23.7464348,21.5301317 24.0011906,21.8368871 C24.2535652,21.5301317 24.5233252,21.2340341 24.8076118,20.9497475 L34.092,11.664 L29.4224315,9.43445657 C29.1828278,9.32002481 29.0225957,9.08632632 29.002224,8.82158411 C28.9733921,8.44689757 29.2279986,8.11581733 29.5854771,8.03901278 L29.6853861,8.02452871 L43,7 L41.9754613,20.3144841 C41.9550896,20.5792264 41.7948575,20.8129248 41.5552538,20.9273566 C41.2161455,21.0893105 40.8155434,20.9711648 40.6150437,20.6654068 L40.5655197,20.5774362 L38.335,15.907 L29.0502525,25.1923882 C27.8162243,26.4264163 27.090525,28.0737503 27.0079221,29.8090324 L27,30.1421356 L27,42 Z" id="primary" fill="#000000" fill-rule="nonzero"></path>
    </g>
</svg>