<?xml version="1.0" encoding="UTF-8"?>
<svg width="48px" height="48px" viewBox="0 0 48 48" version="1.1" xmlns="http://www.w3.org/2000/svg" xmlns:xlink="http://www.w3.org/1999/xlink">
    <!-- Generator: Sketch 58 (84663) - https://sketch.com -->
    <title>keep_right</title>
    <desc>Created with Sketch.</desc>
    <g id="keep_right" stroke="none" stroke-width="1" fill="none" fill-rule="evenodd">
        <path d="M33,4.73761712 L41.8186582,14.5513942 C41.9940064,14.7465291 42.0467233,15.0161385 41.9569078,15.2584426 C41.8297931,15.6013728 41.4575684,15.7946863 41.0943045,15.7226451 L40.9956456,15.6963314 L36,14.0116171 L36,19.3380962 C36,23.9045133 33.6041152,28.136102 29.6884448,30.4855042 L29.3985297,30.6594533 C27.2900918,31.924516 26,34.2030638 26,36.6619038 L26,44 L20,44 L20,36.6619038 C20,32.0954867 22.3958848,27.863898 26.3115552,25.5144958 L26.6014703,25.3405467 C28.7099082,24.075484 30,21.7969362 30,19.3380962 L30,14.0106171 L25.0043544,15.6963314 C24.7866088,15.7697607 24.5478309,15.7433085 24.3552186,15.6289286 L24.2630707,15.5644667 C23.9759192,15.329716 23.9195738,14.9335254 24.1151051,14.6370757 L24.1813418,14.5513942 L33,4.73761712 Z M20,9 C20,19.4934102 17.0898509,28 13.5,28 C9.9580138,28 7.07772481,19.7187404 7.00154679,9.41866132 L7,9 L20,9 Z" id="primary" fill="#000000" fill-rule="nonzero"></path>
    </g>
</svg>