<?xml version="1.0" encoding="UTF-8"?>
<svg width="48px" height="48px" viewBox="0 0 48 48" version="1.1" xmlns="http://www.w3.org/2000/svg" xmlns:xlink="http://www.w3.org/1999/xlink">
    <!-- Generator: Sketch 58 (84663) - https://sketch.com -->
    <title>keep_left_us</title>
    <desc>Created with Sketch.</desc>
    <g id="keep_left_us" stroke="none" stroke-width="1" fill="none" fill-rule="evenodd">
        <path d="M15.0000009,4.73761712 L23.8186582,14.5513942 C24.0893872,14.8526729 24.0527959,15.3062409 23.7369293,15.5644667 C23.5323459,15.7317166 23.2496821,15.7819989 22.9956456,15.6963314 L17.9990009,14.0106171 L18.0000009,19.3380962 C18.0000009,21.7091205 19.1995879,23.9125006 21.1757786,25.2011641 L21.3985297,25.3405467 L21.6884448,25.5144958 C25.5062234,27.8051629 27.8792559,31.8850836 27.9955214,36.3200745 L28.0000009,36.6619038 L28.0000009,44 L22.0000009,44 L22.0000009,36.6619038 C22.0000009,34.2908795 20.8004121,32.0874994 18.8242214,30.7988359 L18.6014703,30.6594533 L18.3115552,30.4855042 C14.4937766,28.1948371 12.1207441,24.1149164 12.0044786,19.6799255 L12.0000009,19.3380962 L11.9990009,14.0116171 L7.00435439,15.6963314 C6.61213457,15.8285978 6.18176281,15.6325482 6.04309217,15.2584426 C5.95327671,15.0161385 6.00599361,14.7465291 6.18134183,14.5513942 L15.0000009,4.73761712 Z M41,9 L40.9984532,9.41866132 C40.9222752,19.7187404 38.0419862,28 34.5,28 C30.9580138,28 28.0777248,19.7187404 28.0015468,9.41866132 L28,9 L41,9 Z" id="primary" fill="#000000" fill-rule="nonzero"></path>
    </g>
</svg>