<?xml version="1.0" encoding="UTF-8"?>
<svg width="48px" height="48px" viewBox="0 0 48 48" version="1.1" xmlns="http://www.w3.org/2000/svg" xmlns:xlink="http://www.w3.org/1999/xlink">
    <!-- Generator: Sketch 58 (84663) - https://sketch.com -->
    <title>merge</title>
    <desc>Created with Sketch.</desc>
    <g id="merge" stroke="none" stroke-width="1" fill="none" fill-rule="evenodd">
        <path d="M23.9481265,5 L35.6555078,18.6593084 C35.8882948,18.930907 35.9582801,19.3061629 35.8390439,19.643414 C35.6680986,20.1269203 35.163246,20.3967385 34.6750955,20.2854204 L34.5629015,20.2528897 L26.9991777,17.578 L27,24.1522173 C27,28.8310751 29.7180514,33.0728859 33.9447117,35.0354444 L34.2287107,35.1628848 L40.1928223,37.7473331 L37.8071777,43.2526669 L31.8430661,40.6682185 C28.5785203,39.253582 25.8851631,36.9445422 23.9993438,34.101103 C22.1148369,36.9445422 19.4214797,39.253582 16.1569339,40.6682185 L10.1928223,43.2526669 L7.80717769,37.7473331 L13.7712893,35.1628848 C18.159804,33.261195 21,28.9350497 21,24.1522173 L20.9991777,17.541 L13.3333515,20.2528897 C13.0382568,20.3572214 12.7140647,20.3166804 12.4556776,20.1489658 L12.3492459,20.0693537 C11.9621675,19.7375891 11.8910008,19.1741574 12.1650295,18.7596204 L12.2407451,18.6593084 L23.9481265,5 Z" id="primary" fill="#000000" fill-rule="nonzero"></path>
    </g>
</svg>