<?xml version="1.0" encoding="UTF-8"?>
<svg width="48px" height="48px" viewBox="0 0 48 48" version="1.1" xmlns="http://www.w3.org/2000/svg" xmlns:xlink="http://www.w3.org/1999/xlink">
    <!-- Generator: Sketch 58 (84663) - https://sketch.com -->
    <title>rotary_clockwise_slight_right</title>
    <desc>Created with Sketch.</desc>
    <g id="rotary_clockwise_slight_right" stroke="none" stroke-width="1" fill="none" fill-rule="evenodd">
        <path d="M24,35 C30.0751322,35 35,30.0751322 35,24 C35,17.9248678 30.0751322,13 24,13 C17.9248678,13 13,17.9248678 13,24 C13,30.0751322 17.9248678,35 24,35 Z M24,31 C20.1340068,31 17,27.8659932 17,24 C17,20.1340068 20.1340068,17 24,17 C27.8659932,17 31,20.1340068 31,24 C31,27.8659932 27.8659932,31 24,31 Z" id="secondary" fill="#000000" fill-rule="nonzero" opacity="0.3" transform="translate(24.000000, 24.000000) scale(-1, 1) translate(-24.000000, -24.000000) "></path>
        <path d="M40.9497475,5.05025253 L39.8494191,16.0535366 C39.8082033,16.4656945 39.4406713,16.7664025 39.0285134,16.7251867 C38.7467029,16.6970056 38.5048006,16.5124816 38.403132,16.2481431 L36.847,12.2022525 L31.3399046,18.4700656 C30.6183393,19.2911058 29.3712757,19.380774 28.5396692,18.6714122 C27.2813226,17.5980403 25.6895051,17 24,17 C20.1340068,17 17,20.1340068 17,24 C17,27.7854517 20.0047834,30.8690987 23.7593502,30.995941 L24,31 C25.1045695,31 26,31.8954305 26,33 L26,43 L22,43 L22,34.8186238 C16.8797639,33.8781111 13,29.3921393 13,24 C13,17.9248678 17.9248678,13 24,13 C25.9713178,13 27.8650137,13.521759 29.5189638,14.482701 L34.1,9.26825253 L29.7518569,7.59686803 C29.3652525,7.44817403 29.172388,7.01422893 29.321082,6.62762452 C29.4227506,6.36328605 29.6646529,6.17876199 29.9464634,6.15058094 L40.9497475,5.05025253 Z" id="primary" fill="#000000" fill-rule="nonzero"></path>
    </g>
</svg>