<?xml version="1.0" encoding="UTF-8"?>
<svg width="48px" height="48px" viewBox="0 0 48 48" version="1.1" xmlns="http://www.w3.org/2000/svg" xmlns:xlink="http://www.w3.org/1999/xlink">
    <!-- Generator: Sketch 58 (84663) - https://sketch.com -->
    <title>rotary_anticlockwise_slight_right</title>
    <desc>Created with Sketch.</desc>
    <g id="rotary_anticlockwise_slight_right" stroke="none" stroke-width="1" fill="none" fill-rule="evenodd">
        <path d="M24,35 C17.9248678,35 13,30.0751322 13,24 C13,17.9248678 17.9248678,13 24,13 C30.0751322,13 35,17.9248678 35,24 C35,30.0751322 30.0751322,35 24,35 Z M24,31 C27.8659932,31 31,27.8659932 31,24 C31,20.1340068 27.8659932,17 24,17 C20.1340068,17 17,20.1340068 17,24 C17,27.8659932 20.1340068,31 24,31 Z" id="secondary" fill="#000000" fill-rule="nonzero" opacity="0.3"></path>
        <path d="M40.9497475,5.05025253 L39.8494191,16.0535366 C39.8082033,16.4656945 39.4406713,16.7664025 39.0285134,16.7251867 C38.7467029,16.6970056 38.5048006,16.5124816 38.403132,16.2481431 L36.895,12.3272525 L32.5838503,17.1199587 C34.1266377,19.0420721 35,21.4514646 35,24 C35,29.3921393 31.1202361,33.8781111 26,34.8186238 L26,43 L22,43 L22,33 C22,31.9456382 22.8158778,31.0818349 23.8507377,31.0054857 L24,31 C27.8659932,31 31,27.8659932 31,24 C31,21.9272944 30.0965568,20.0057988 28.5523621,18.6822653 C27.69934,17.9511377 27.6157224,16.6610176 28.3672299,15.8258944 L34.224,9.31625253 L29.7518569,7.59686803 C29.3652525,7.44817403 29.172388,7.01422893 29.321082,6.62762452 C29.4227506,6.36328605 29.6646529,6.17876199 29.9464634,6.15058094 L40.9497475,5.05025253 Z" id="primary" fill="#000000" fill-rule="nonzero"></path>
    </g>
</svg>