<?xml version="1.0" encoding="UTF-8"?>
<svg width="48px" height="48px" viewBox="0 0 48 48" version="1.1" xmlns="http://www.w3.org/2000/svg" xmlns:xlink="http://www.w3.org/1999/xlink">
    <!-- Generator: Sketch 58 (84663) - https://sketch.com -->
    <title>rotary_clockwise_right</title>
    <desc>Created with Sketch.</desc>
    <g id="rotary_clockwise_right" stroke="none" stroke-width="1" fill="none" fill-rule="evenodd">
        <path d="M16,32 C22.0751322,32 27,27.0751322 27,21 C27,14.9248678 22.0751322,10 16,10 C9.92486775,10 5,14.9248678 5,21 C5,27.0751322 9.92486775,32 16,32 Z M16,28 C12.1340068,28 9,24.8659932 9,21 C9,17.1340068 12.1340068,14 16,14 C19.8659932,14 23,17.1340068 23,21 C23,24.8659932 19.8659932,28 16,28 Z" id="secondary" fill="#000000" fill-rule="nonzero" opacity="0.3" transform="translate(16.000000, 21.000000) scale(-1, 1) translate(-16.000000, -21.000000) "></path>
        <path d="M16,10 C21.3921393,10 25.8781111,13.8797639 26.8186238,19 L35.111,19 L33.2811665,14.8826247 C33.1129385,14.5041116 33.2834082,14.0608903 33.6619214,13.8926622 C33.9207275,13.7776373 34.2222564,13.8182098 34.4414536,13.9975529 L43,21 L34.4414536,28.0024471 C34.1208699,28.2647428 33.6483529,28.2174911 33.3860572,27.8969075 C33.2067141,27.6777103 33.1661416,27.3761814 33.2811665,27.1173753 L35.111,23 L25,23 C23.9456382,23 23.0818349,22.1841222 23.0054857,21.1492623 L23,21 C23,17.1340068 19.8659932,14 16,14 C12.1340068,14 9,17.1340068 9,21 C9,24.7854517 12.0047834,27.8690987 15.7593502,27.995941 L16,28 C17.1045695,28 18,28.8954305 18,30 L18,42 L14,42 L14,31.8186238 C8.87976392,30.8781111 5,26.3921393 5,21 C5,14.9248678 9.92486775,10 16,10 Z" id="primary" fill="#000000" fill-rule="nonzero"></path>
    </g>
</svg>