<?xml version="1.0" encoding="UTF-8"?>
<svg width="48px" height="48px" viewBox="0 0 48 48" version="1.1" xmlns="http://www.w3.org/2000/svg" xmlns:xlink="http://www.w3.org/1999/xlink">
    <!-- Generator: Sketch 58 (84663) - https://sketch.com -->
    <title>rotary_clockwise</title>
    <desc>Created with Sketch.</desc>
    <g id="rotary_clockwise" stroke="none" stroke-width="1" fill="none" fill-rule="evenodd">
        <path d="M21.4525055,31.6956861 L21.3509644,31.7053572 L10.4378222,33.4903811 L14.3485173,43.8339514 C14.448676,44.0988656 14.6895215,44.2847669 14.9711666,44.3145555 C15.3487563,44.3544917 15.6904878,44.1069077 15.7783784,43.7480861 L15.7958912,43.6476002 L16.2721587,39.1422667 C21.8475662,41.9909515 28.4921862,41.5254714 33.6009007,38.0335986 L33.9117379,37.8160315 L31.5817732,34.5646834 C27.7059593,37.3421496 22.6060579,37.7890301 18.2975336,35.6828877 L21.9132665,33.0519954 C22.142284,32.8853752 22.2579117,32.6039572 22.2121946,32.3244554 C22.1509036,31.9497391 21.8217967,31.6856048 21.4525055,31.6956861 Z M31.0091653,8.50816744 L29.3583976,12.1516501 C33.7016428,14.1194621 36.638597,18.3126394 36.9689066,23.0969774 L32.8826247,21.2811665 C32.6238186,21.1661416 32.3222897,21.2067141 32.1030925,21.3860572 C31.8116529,21.6245079 31.7461074,22.0366951 31.9336652,22.3505268 L31.9975529,22.4414536 L39,31 L46.0024471,22.4414536 C46.1817902,22.2222564 46.2223627,21.9207275 46.1073378,21.6619214 C45.9531287,21.314951 45.567849,21.1427949 45.2131551,21.2460901 L45.1173753,21.2811665 L40.9775114,23.1214356 C40.6564922,16.8614005 36.9228176,11.3341704 31.333664,8.65930682 L31.0091653,8.50816744 Z M10.9214956,6.02352319 C10.6999611,6.32801987 10.7409617,6.74336732 11.0018974,6.99945491 L11.0867335,7.07123328 L14.7499056,9.73663669 C9.49131036,13.1434604 6.57183205,19.1371858 7.04720983,25.3123642 L7.07909682,25.6758011 L11.0598292,25.2836665 C10.5924059,20.5386446 12.7550796,15.898813 16.7328905,13.2205232 L17.2041088,17.6668381 C17.2338973,17.9484832 17.4197986,18.1893287 17.6847129,18.2894874 C18.0398722,18.423766 18.4331726,18.2708182 18.6090876,17.945962 L18.6514827,17.8531892 L22.5621778,7.50961894 L11.6490356,5.72459509 C11.3695338,5.67887797 11.0881158,5.79450562 10.9214956,6.02352319 Z" id="primary" fill="#000000" fill-rule="nonzero"></path>
    </g>
</svg>