<?xml version="1.0" encoding="UTF-8"?>
<svg width="48px" height="48px" viewBox="0 0 48 48" version="1.1" xmlns="http://www.w3.org/2000/svg" xmlns:xlink="http://www.w3.org/1999/xlink">
    <!-- Generator: Sketch 58 (84663) - https://sketch.com -->
    <title>rotary_anticlockwise_right</title>
    <desc>Created with Sketch.</desc>
    <g id="rotary_anticlockwise_right" stroke="none" stroke-width="1" fill="none" fill-rule="evenodd">
        <path d="M18,32 C24.0751322,32 29,27.0751322 29,21 C29,14.9248678 24.0751322,10 18,10 C11.9248678,10 7,14.9248678 7,21 C7,27.0751322 11.9248678,32 18,32 Z M18,28 C14.1340068,28 11,24.8659932 11,21 C11,17.1340068 14.1340068,14 18,14 C21.8659932,14 25,17.1340068 25,21 C25,24.8659932 21.8659932,28 18,28 Z" id="secondary" fill="#000000" fill-rule="nonzero" opacity="0.3"></path>
        <path d="M36.3253413,14.1889065 L36.3860572,14.1030925 C36.6245079,13.8116529 37.0366951,13.7461074 37.3505268,13.9336652 L37.4414536,13.9975529 L46,21 L37.4414536,28.0024471 C37.2222564,28.1817902 36.9207275,28.2223627 36.6619214,28.1073378 C36.314951,27.9531287 36.1427949,27.567849 36.2460901,27.2131551 L36.2811665,27.1173753 L38.111,22.9999983 L28.8186238,23 C28.0150969,27.3744731 24.6236907,30.8435085 20.2902721,31.7612395 L20,31.8186238 L20,42 L16,42 L16,30 C16,28.9456382 16.8158778,28.0818349 17.8507377,28.0054857 L18.2406498,27.995941 C21.9153322,27.8717975 24.8717975,24.9153322 24.995941,21.2406498 L25.0054857,20.8507377 C25.0780174,19.8676208 25.8612265,19.0821352 26.8433495,19.0060445 L27,19 L38.111,18.9999983 L36.2811665,14.8826247 C36.1805197,14.6561694 36.1990022,14.3970044 36.3253413,14.1889065 L36.3860572,14.1030925 L36.3253413,14.1889065 Z" id="primary" fill="#000000" fill-rule="nonzero"></path>
    </g>
</svg>