<?xml version="1.0" encoding="UTF-8"?>
<svg width="48px" height="48px" viewBox="0 0 48 48" version="1.1" xmlns="http://www.w3.org/2000/svg" xmlns:xlink="http://www.w3.org/1999/xlink">
    <!-- Generator: Sketch 58 (84663) - https://sketch.com -->
    <title>rotary_clockwise_slight_left</title>
    <desc>Created with Sketch.</desc>
    <g id="rotary_clockwise_slight_left" stroke="none" stroke-width="1" fill="none" fill-rule="evenodd">
        <path d="M24,35 C30.0751322,35 35,30.0751322 35,24 C35,17.9248678 30.0751322,13 24,13 C17.9248678,13 13,17.9248678 13,24 C13,30.0751322 17.9248678,35 24,35 Z M24,31 C20.1340068,31 17,27.8659932 17,24 C17,20.1340068 20.1340068,17 24,17 C27.8659932,17 31,20.1340068 31,24 C31,27.8659932 27.8659932,31 24,31 Z" id="secondary" fill="#000000" fill-rule="nonzero" opacity="0.3"></path>
        <path d="M7.05025253,5.05025253 L18.0535366,6.15058094 C18.3353471,6.17876199 18.5772494,6.36328605 18.678918,6.62762452 C18.8152208,6.9820119 18.6645197,7.3761786 18.3406724,7.55394427 L18.2481431,7.59686803 L13.7752525,9.31625253 L19.6327701,15.8258944 C20.3467022,16.6192615 20.3069339,17.8232632 19.5698124,18.5685305 L19.4476379,18.6822653 C17.9034432,20.0057988 17,21.9272944 17,24 C17,27.7854517 20.0047834,30.8690987 23.7593502,30.995941 L24.1492623,31.0054857 C25.1323792,31.0780174 25.9178648,31.8612265 25.9939555,32.8433495 L26,33 L26,43 L22,43 L22,34.8186238 C16.8797639,33.8781111 13,29.3921393 13,24 C13,21.5728234 13.7921653,19.2718536 15.2003274,17.3978236 L15.4161497,17.1199587 L11.1042525,12.3272525 L9.59686803,16.2481431 C9.50790797,16.4794393 9.31158155,16.6496275 9.07509892,16.7074397 L8.97148662,16.7251867 C8.59367521,16.7629678 8.25336196,16.513438 8.16752012,16.1541208 L8.15058094,16.0535366 L7.05025253,5.05025253 Z" id="primary" fill="#000000" fill-rule="nonzero"></path>
    </g>
</svg>