<?xml version="1.0" encoding="UTF-8"?>
<svg width="48px" height="48px" viewBox="0 0 48 48" version="1.1" xmlns="http://www.w3.org/2000/svg" xmlns:xlink="http://www.w3.org/1999/xlink">
    <!-- Generator: Sketch 58 (84663) - https://sketch.com -->
    <title>rotary_anticlockwise_straight</title>
    <desc>Created with Sketch.</desc>
    <g id="rotary_anticlockwise_straight" stroke="none" stroke-width="1" fill="none" fill-rule="evenodd">
        <path d="M24,40 C30.0751322,40 35,35.0751322 35,29 C35,22.9248678 30.0751322,18 24,18 C17.9248678,18 13,22.9248678 13,29 C13,35.0751322 17.9248678,40 24,40 Z M24,36 C20.1340068,36 17,32.8659932 17,29 C17,25.1340068 20.1340068,22 24,22 C27.8659932,22 31,25.1340068 31,29 C31,32.8659932 27.8659932,36 24,36 Z" id="secondary" fill="#000000" fill-rule="nonzero" opacity="0.3"></path>
        <path d="M24,3 L31.0024471,11.5585464 C31.1817902,11.7777436 31.2223627,12.0792725 31.1073378,12.3380786 C30.9531287,12.685049 30.567849,12.8572051 30.2131551,12.7539099 L30.1173753,12.7188335 L25.9999983,10.888 L26,18.1813762 C31.0271409,19.1047887 34.8585076,23.4459065 34.9961682,28.7067979 L35,29 C35,34.2941004 31.2600358,38.7146853 26.2780395,39.7638228 L26,39.8186238 L26,44 L22,44 L22,38 C22,36.9456382 22.8158778,36.0818349 23.8507377,36.0054857 L24,36 L24.2406498,35.995941 C27.9952166,35.8690987 31,32.7854517 31,29 C31,25.2145483 27.9952166,22.1309013 24.2406498,22.004059 L24,22 C22.9456382,22 22.0818349,21.1841222 22.0054857,20.1492623 L22,20 L21.9999983,10.888 L17.8826247,12.7188335 C17.6561694,12.8194803 17.3970044,12.8009978 17.1889065,12.6746587 L17.1030925,12.6139428 C16.8116529,12.3754921 16.7461074,11.9633049 16.9336652,11.6494732 L16.9975529,11.5585464 L24,3 Z" id="primary" fill="#000000" fill-rule="nonzero"></path>
    </g>
</svg>