<?xml version="1.0" encoding="UTF-8"?>
<svg width="48px" height="48px" viewBox="0 0 48 48" version="1.1" xmlns="http://www.w3.org/2000/svg" xmlns:xlink="http://www.w3.org/1999/xlink">
    <!-- Generator: Sketch 58 (84663) - https://sketch.com -->
    <title>rotary_anticlockwise_sharp_right</title>
    <desc>Created with Sketch.</desc>
    <g id="rotary_anticlockwise_sharp_right" stroke="none" stroke-width="1" fill="none" fill-rule="evenodd">
        <path d="M21,30 C27.0751322,30 32,25.0751322 32,19 C32,12.9248678 27.0751322,8 21,8 C14.9248678,8 10,12.9248678 10,19 C10,25.0751322 14.9248678,30 21,30 Z M21,26 C17.1340068,26 14,22.8659932 14,19 C14,15.1340068 17.1340068,12 21,12 C24.8659932,12 28,15.1340068 28,19 C28,22.8659932 24.8659932,26 21,26 Z" id="secondary" fill="#000000" fill-rule="nonzero" opacity="0.3" transform="translate(21.000000, 19.000000) scale(-1, 1) translate(-21.000000, -19.000000) "></path>
        <path d="M28.7624151,23.9617816 L36.783,31.9618416 L38.403132,27.7518569 C38.551826,27.3652525 38.9857711,27.172388 39.3723755,27.321082 C39.6367139,27.4227506 39.821238,27.6646529 39.8494191,27.9464634 L40.9497475,38.9497475 L29.9464634,37.8494191 C29.5343055,37.8082033 29.2335975,37.4406713 29.2748133,37.0285134 C29.3029944,36.7467029 29.4875184,36.5048006 29.7518569,36.403132 L33.952,34.7868416 L27.2206817,28.0735497 C25.9572618,28.9413076 24.5224621,29.5380823 23,29.8181068 L23,40 L19,40 L19,28 C19,26.9456382 19.8158778,26.0818349 20.8507377,26.0054857 L21,26 C22.8782315,26 24.6342454,25.2595764 25.9389088,23.9605627 C26.7197269,23.1831258 27.9822685,23.1836708 28.7624151,23.9617816 Z" id="primary" fill="#000000" fill-rule="nonzero"></path>
    </g>
</svg>