<?xml version="1.0" encoding="UTF-8"?>
<svg width="48px" height="48px" viewBox="0 0 48 48" version="1.1" xmlns="http://www.w3.org/2000/svg" xmlns:xlink="http://www.w3.org/1999/xlink">
    <!-- Generator: Sketch 58 (84663) - https://sketch.com -->
    <title>rotary_clockwise_sharp_left</title>
    <desc>Created with Sketch.</desc>
    <g id="rotary_clockwise_sharp_left" stroke="none" stroke-width="1" fill="none" fill-rule="evenodd">
        <path d="M27,30 C33.0751322,30 38,25.0751322 38,19 C38,12.9248678 33.0751322,8 27,8 C20.9248678,8 16,12.9248678 16,19 C16,25.0751322 20.9248678,30 27,30 Z M27,26 C23.1340068,26 20,22.8659932 20,19 C20,15.1340068 23.1340068,12 27,12 C30.8659932,12 34,15.1340068 34,19 C34,22.8659932 30.8659932,26 27,26 Z" id="secondary" fill="#000000" fill-rule="nonzero" opacity="0.3"></path>
        <path d="M11.2152525,31.9618416 L19.2375849,23.9617816 C20.0177315,23.1836708 21.2802731,23.1831258 22.0610912,23.9605627 C23.2932733,25.187409 24.9280489,25.9160067 26.6881495,25.9931754 L27.1492623,26.0054857 C28.1323792,26.0780174 28.9178648,26.8612265 28.9939555,27.8433495 L29,28 L29,40 L25,40 L25,29.8181068 C23.6044097,29.5614176 22.2824802,29.0385704 21.0986952,28.2848172 L20.7793183,28.0735497 L14.0472525,34.7878416 L18.2481431,36.403132 C18.4794393,36.492092 18.6496275,36.6884185 18.7074397,36.9249011 L18.7251867,37.0285134 C18.7629678,37.4063248 18.513438,37.746638 18.1541208,37.8324799 L18.0535366,37.8494191 L7.05025253,38.9497475 L8.15058094,27.9464634 C8.17876199,27.6646529 8.36328605,27.4227506 8.62762452,27.321082 C8.9820119,27.1847792 9.3761786,27.3354803 9.55394427,27.6593276 L9.59686803,27.7518569 L11.2152525,31.9618416 L19.2375849,23.9617816 L11.2152525,31.9618416 Z" id="primary" fill="#000000" fill-rule="nonzero"></path>
    </g>
</svg>