<?xml version="1.0" encoding="UTF-8"?>
<svg width="48px" height="48px" viewBox="0 0 48 48" version="1.1" xmlns="http://www.w3.org/2000/svg" xmlns:xlink="http://www.w3.org/1999/xlink">
    <!-- Generator: Sketch 58 (84663) - https://sketch.com -->
    <title>rotary_clockwise_sharp_right</title>
    <desc>Created with Sketch.</desc>
    <g id="rotary_clockwise_sharp_right" stroke="none" stroke-width="1" fill="none" fill-rule="evenodd">
        <path d="M20,30 C26.0751322,30 31,25.0751322 31,19 C31,12.9248678 26.0751322,8 20,8 C13.9248678,8 9,12.9248678 9,19 C9,25.0751322 13.9248678,30 20,30 Z M20,26 C16.1340068,26 13,22.8659932 13,19 C13,15.1340068 16.1340068,12 20,12 C23.8659932,12 27,15.1340068 27,19 C27,22.8659932 23.8659932,26 20,26 Z" id="secondary" fill="#000000" fill-rule="nonzero" opacity="0.3" transform="translate(20.000000, 19.000000) scale(-1, 1) translate(-20.000000, -19.000000) "></path>
        <path d="M20,8 C26.0751322,8 31,12.9248678 31,19 C31,21.2711377 30.3069304,23.435437 29.0565707,25.2453482 L35.784,31.96 L37.403132,27.7518569 C37.551826,27.3652525 37.9857711,27.172388 38.3723755,27.321082 C38.6367139,27.4227506 38.821238,27.6646529 38.8494191,27.9464634 L39.9497475,38.9497475 L28.9464634,37.8494191 C28.5343055,37.8082033 28.2335975,37.4406713 28.2748133,37.0285134 C28.3029944,36.7467029 28.4875184,36.5048006 28.7518569,36.403132 L32.954,34.787 L24.9412547,26.7892551 C24.1581339,26.0075742 24.1585198,24.738572 24.9421158,23.9573675 C26.2523269,22.6511551 27,20.8873199 27,19 C27,15.1340068 23.8659932,12 20,12 C16.1340068,12 13,15.1340068 13,19 C13,22.7854517 16.0047834,25.8690987 19.7593502,25.995941 L20,26 C21.1045695,26 22,26.8954305 22,28 L22,40 L18,40 L18,29.8186238 C12.8797639,28.8781111 9,24.3921393 9,19 C9,12.9248678 13.9248678,8 20,8 Z" id="primary" fill="#000000" fill-rule="nonzero"></path>
    </g>
</svg>