<?xml version="1.0" encoding="UTF-8"?>
<svg width="48px" height="48px" viewBox="0 0 48 48" version="1.1" xmlns="http://www.w3.org/2000/svg" xmlns:xlink="http://www.w3.org/1999/xlink">
    <!-- Generator: Sketch 58 (84663) - https://sketch.com -->
    <title>rotary_anticlockwise_left</title>
    <desc>Created with Sketch.</desc>
    <g id="rotary_anticlockwise_left" stroke="none" stroke-width="1" fill="none" fill-rule="evenodd">
        <path d="M32,32 C38.0751322,32 43,27.0751322 43,21 C43,14.9248678 38.0751322,10 32,10 C25.9248678,10 21,14.9248678 21,21 C21,27.0751322 25.9248678,32 32,32 Z M32,28 C28.1340068,28 25,24.8659932 25,21 C25,17.1340068 28.1340068,14 32,14 C35.8659932,14 39,17.1340068 39,21 C39,24.8659932 35.8659932,28 32,28 Z" id="secondary" fill="#000000" fill-rule="nonzero" opacity="0.3"></path>
        <path d="M31.7067979,10.0038318 L32,10 C38.0751322,10 43,14.9248678 43,21 C43,26.2941004 39.2600358,30.7146853 34.2780395,31.7638228 L34,31.8186238 L34,42 L30,42 L30,30 C30,28.9456382 30.8158778,28.0818349 31.8507377,28.0054857 L32.2406498,27.995941 C35.9952166,27.8690987 39,24.7854517 39,21 C39,17.1340068 35.8659932,14 32,14 C28.1340068,14 25,17.1340068 25,21 C25,22.0543618 24.1841222,22.9181651 23.1492623,22.9945143 L23,23 L12.889,23 L14.7188335,27.1173753 C14.8194803,27.3438306 14.8009978,27.6029956 14.6746587,27.8110935 L14.6139428,27.8969075 C14.3754921,28.1883471 13.9633049,28.2538926 13.6494732,28.0663348 L13.5585464,28.0024471 L5,21 L13.5585464,13.9975529 C13.7777436,13.8182098 14.0792725,13.7776373 14.3380786,13.8926622 C14.685049,14.0468713 14.8572051,14.432151 14.7539099,14.7868449 L14.7188335,14.8826247 L12.889,19 L21.1813762,19 C22.1047887,13.9728591 26.4459065,10.1414924 31.7067979,10.0038318 L32,10 L31.7067979,10.0038318 Z" id="primary" fill="#000000" fill-rule="nonzero"></path>
    </g>
</svg>