<?xml version="1.0" encoding="UTF-8"?>
<svg width="48px" height="48px" viewBox="0 0 48 48" version="1.1" xmlns="http://www.w3.org/2000/svg" xmlns:xlink="http://www.w3.org/1999/xlink">
    <!-- Generator: Sketch 58 (84663) - https://sketch.com -->
    <title>rotary_anticlockwise_alt</title>
    <desc>Created with Sketch.</desc>
    <g id="rotary_anticlockwise_alt" stroke="none" stroke-width="1" fill="none" fill-rule="evenodd">
        <path d="M16.6582301,28.1914739 C18.661273,29.9877292 21.2545069,31 24,31 L24,27 C22.2498369,27 20.6048849,26.3578918 19.3287595,25.2135093 L16.6582301,28.1914739 Z" id="secondary" fill="#000000" fill-rule="nonzero" opacity="0.3"></path>
        <path d="M24,9 C30.0751322,9 35,13.9248678 35,20 C35,25.2941004 31.2600358,29.7146853 26.2780395,30.7638228 L26,30.8186238 L26,39 L22,39 L22,29 C22,27.9456382 22.8158778,27.0818349 23.8507377,27.0054857 L24.2406498,26.995941 C27.9952166,26.8690987 31,23.7854517 31,20 C31,16.1340068 27.8659932,13 24,13 C20.4444702,13 17.5080814,15.6508575 17.0593905,19.0840155 L21.1173753,17.2811665 C21.3761814,17.1661416 21.6777103,17.2067141 21.8969075,17.3860572 C22.1883471,17.6245079 22.2538926,18.0366951 22.0663348,18.3505268 L22.0024471,18.4414536 L15,27 L7.9975529,18.4414536 C7.81820979,18.2222564 7.77763728,17.9207275 7.89266222,17.6619214 C8.04687127,17.314951 8.43215105,17.1427949 8.78684494,17.2460901 L8.88262473,17.2811665 L13.0341098,19.1273279 C13.4789057,13.4601629 18.2185894,9 24,9 Z" id="primary" fill="#000000" fill-rule="nonzero"></path>
    </g>
</svg>