<?xml version="1.0" encoding="UTF-8"?>
<svg width="48px" height="48px" viewBox="0 0 48 48" version="1.1" xmlns="http://www.w3.org/2000/svg" xmlns:xlink="http://www.w3.org/1999/xlink">
    <!-- Generator: Sketch 58 (84663) - https://sketch.com -->
    <title>rotary_clockwise_straight</title>
    <desc>Created with Sketch.</desc>
    <g id="rotary_clockwise_straight" stroke="none" stroke-width="1" fill="none" fill-rule="evenodd">
        <path d="M24,40 C30.0751322,40 35,35.0751322 35,29 C35,22.9248678 30.0751322,18 24,18 C17.9248678,18 13,22.9248678 13,29 C13,35.0751322 17.9248678,40 24,40 Z M24,36 C20.1340068,36 17,32.8659932 17,29 C17,25.1340068 20.1340068,22 24,22 C27.8659932,22 31,25.1340068 31,29 C31,32.8659932 27.8659932,36 24,36 Z" id="secondary" fill="#000000" fill-rule="nonzero" opacity="0.3" transform="translate(24.000000, 29.000000) scale(-1, 1) translate(-24.000000, -29.000000) "></path>
        <path d="M24,3 L31.0024471,11.5585464 C31.2647428,11.8791301 31.2174911,12.3516471 30.8969075,12.6139428 C30.6777103,12.7932859 30.3761814,12.8338584 30.1173753,12.7188335 L26,10.888 L26,20 C26,21.0543618 25.1841222,21.9181651 24.1492623,21.9945143 L24,22 C20.1340068,22 17,25.1340068 17,29 C17,32.8659932 20.1340068,36 24,36 C25.1045695,36 26,36.8954305 26,38 L26,44 L22,44 L22,39.8186238 C16.8797639,38.8781111 13,34.3921393 13,29 C13,23.6078607 16.8797639,19.1218889 22,18.1813762 L22,10.888 L17.8826247,12.7188335 C17.5041116,12.8870615 17.0608903,12.7165918 16.8926622,12.3380786 C16.7776373,12.0792725 16.8182098,11.7777436 16.9975529,11.5585464 L24,3 Z" id="primary" fill="#000000" fill-rule="nonzero"></path>
    </g>
</svg>