<?xml version="1.0" encoding="UTF-8"?>
<svg width="48px" height="48px" viewBox="0 0 48 48" version="1.1" xmlns="http://www.w3.org/2000/svg" xmlns:xlink="http://www.w3.org/1999/xlink">
    <!-- Generator: Sketch 58 (84663) - https://sketch.com -->
    <title>rotary_clockwise_alt</title>
    <desc>Created with Sketch.</desc>
    <g id="rotary_clockwise_alt" stroke="none" stroke-width="1" fill="none" fill-rule="evenodd">
        <path d="M30.0065052,28.1914739 C28.0034623,29.9877292 25.4102284,31 22.6647353,31 L22.6647353,27 C24.4148984,27 26.0598504,26.3578918 27.3359758,25.2135093 L30.0065052,28.1914739 Z" id="secondary" fill="#000000" fill-rule="nonzero" opacity="0.3"></path>
        <path d="M24,9 C29.7814106,9 34.5210943,13.4601629 34.9658902,19.1273279 L39.1173753,17.2811665 C39.3761814,17.1661416 39.6777103,17.2067141 39.8969075,17.3860572 C40.1883471,17.6245079 40.2538926,18.0366951 40.0663348,18.3505268 L40.0024471,18.4414536 L33,27 L25.9975529,18.4414536 C25.8182098,18.2222564 25.7776373,17.9207275 25.8926622,17.6619214 C26.0468713,17.314951 26.432151,17.1427949 26.7868449,17.2460901 L26.8826247,17.2811665 L30.9406095,19.0840155 C30.4919186,15.6508575 27.5555298,13 24,13 C20.1340068,13 17,16.1340068 17,20 C17,23.7854517 20.0047834,26.8690987 23.7593502,26.995941 L24,27 C25.1045695,27 26,27.8954305 26,29 L26,39 L22,39 L22,30.8186238 C16.8797639,29.8781111 13,25.3921393 13,20 C13,13.9248678 17.9248678,9 24,9 Z" id="primary" fill="#000000" fill-rule="nonzero"></path>
    </g>
</svg>