<?xml version="1.0" encoding="UTF-8"?>
<svg width="48px" height="48px" viewBox="0 0 48 48" version="1.1" xmlns="http://www.w3.org/2000/svg" xmlns:xlink="http://www.w3.org/1999/xlink">
    <!-- Generator: Sketch 58 (84663) - https://sketch.com -->
    <title>rotary_anticlockwise_slight_left</title>
    <desc>Created with Sketch.</desc>
    <g id="rotary_anticlockwise_slight_left" stroke="none" stroke-width="1" fill="none" fill-rule="evenodd">
        <path d="M24,35 C30.0751322,35 35,30.0751322 35,24 C35,17.9248678 30.0751322,13 24,13 C17.9248678,13 13,17.9248678 13,24 C13,30.0751322 17.9248678,35 24,35 Z M24,31 C20.1340068,31 17,27.8659932 17,24 C17,20.1340068 20.1340068,17 24,17 C27.8659932,17 31,20.1340068 31,24 C31,27.8659932 27.8659932,31 24,31 Z" id="secondary" fill="#000000" fill-rule="nonzero" opacity="0.3"></path>
        <path d="M7.05025253,5.05025253 L18.0535366,6.15058094 C18.3353471,6.17876199 18.5772494,6.36328605 18.678918,6.62762452 C18.8152208,6.9820119 18.6645197,7.3761786 18.3406724,7.55394427 L18.2481431,7.59686803 L13.8992525,9.26825253 L18.4810362,14.482701 C20.024723,13.5858218 21.7772549,13.0715198 23.6068194,13.0069323 L24,13 C30.0751322,13 35,17.9248678 35,24 C35,29.2941004 31.2600358,33.7146853 26.2780395,34.7638228 L26,34.8186238 L26,43 L22,43 L22,33 C22,31.9456382 22.8158778,31.0818349 23.8507377,31.0054857 L24.2406498,30.995941 C27.9952166,30.8690987 31,27.7854517 31,24 C31,20.1340068 27.8659932,17 24,17 C22.3104949,17 20.7186774,17.5980403 19.4603308,18.6714122 C18.6724931,19.3434392 17.5117797,19.2983312 16.7782566,18.5936158 L16.6600954,18.4700656 L11.1522525,12.2032525 L9.59686803,16.2481431 C9.50790797,16.4794393 9.31158155,16.6496275 9.07509892,16.7074397 L8.97148662,16.7251867 C8.59367521,16.7629678 8.25336196,16.513438 8.16752012,16.1541208 L8.15058094,16.0535366 L7.05025253,5.05025253 Z" id="primary" fill="#000000" fill-rule="nonzero"></path>
    </g>
</svg>