<?xml version="1.0" encoding="UTF-8"?>
<svg width="48px" height="48px" viewBox="0 0 48 48" version="1.1" xmlns="http://www.w3.org/2000/svg" xmlns:xlink="http://www.w3.org/1999/xlink">
    <!-- Generator: Sketch 58 (84663) - https://sketch.com -->
    <title>rotary_anticlockwise_sharp_left</title>
    <desc>Created with Sketch.</desc>
    <g id="rotary_anticlockwise_sharp_left" stroke="none" stroke-width="1" fill="none" fill-rule="evenodd">
        <path d="M28,30 C34.0751322,30 39,25.0751322 39,19 C39,12.9248678 34.0751322,8 28,8 C21.9248678,8 17,12.9248678 17,19 C17,25.0751322 21.9248678,30 28,30 Z M28,26 C24.1340068,26 21,22.8659932 21,19 C21,15.1340068 24.1340068,12 28,12 C31.8659932,12 35,15.1340068 35,19 C35,22.8659932 31.8659932,26 28,26 Z" id="secondary" fill="#000000" fill-rule="nonzero" opacity="0.3"></path>
        <path d="M28,8 C34.0751322,8 39,12.9248678 39,19 C39,24.2941004 35.2600358,28.7146853 30.2780395,29.7638228 L30,29.8186238 L30,40 L26,40 L26,28 C26,26.9456382 26.8158778,26.0818349 27.8507377,26.0054857 L28.2406498,25.995941 C31.9952166,25.8690987 35,22.7854517 35,19 C35,15.1340068 31.8659932,12 28,12 C24.1340068,12 21,15.1340068 21,19 C21,20.8873199 21.7476731,22.6511551 23.0578842,23.9573675 C23.8002383,24.697456 23.8396559,25.8753462 23.1758848,26.6619242 L23.0587453,26.7892551 L15.0452525,34.787 L19.2481431,36.403132 C19.4794393,36.492092 19.6496275,36.6884185 19.7074397,36.9249011 L19.7251867,37.0285134 C19.7629678,37.4063248 19.513438,37.746638 19.1541208,37.8324799 L19.0535366,37.8494191 L8.05025253,38.9497475 L9.15058094,27.9464634 C9.17876199,27.6646529 9.36328605,27.4227506 9.62762452,27.321082 C9.9820119,27.1847792 10.3761786,27.3354803 10.5539443,27.6593276 L10.596868,27.7518569 L12.2152525,31.96 L18.9434293,25.2453482 C17.7666201,23.5419024 17.0834659,21.5245349 17.0071669,19.3996296 L17,19 C17,12.9248678 21.9248678,8 28,8 Z" id="primary" fill="#000000" fill-rule="nonzero"></path>
    </g>
</svg>