<?xml version="1.0" encoding="UTF-8"?>
<svg width="48px" height="48px" viewBox="0 0 48 48" version="1.1" xmlns="http://www.w3.org/2000/svg" xmlns:xlink="http://www.w3.org/1999/xlink">
    <!-- Generator: Sketch 58 (84663) - https://sketch.com -->
    <title>rotary_clockwise_left</title>
    <desc>Created with Sketch.</desc>
    <g id="rotary_clockwise_left" stroke="none" stroke-width="1" fill="none" fill-rule="evenodd">
        <path d="M30,32 C36.0751322,32 41,27.0751322 41,21 C41,14.9248678 36.0751322,10 30,10 C23.9248678,10 19,14.9248678 19,21 C19,27.0751322 23.9248678,32 30,32 Z M30,28 C26.1340068,28 23,24.8659932 23,21 C23,17.1340068 26.1340068,14 30,14 C33.8659932,14 37,17.1340068 37,21 C37,24.8659932 33.8659932,28 30,28 Z" id="secondary" fill="#000000" fill-rule="nonzero" opacity="0.3" transform="translate(30.000000, 21.000000) scale(-1, 1) translate(-30.000000, -21.000000) "></path>
        <path d="M11.7188335,27.1173753 C11.8870615,27.4958884 11.7165918,27.9391097 11.3380786,28.1073378 C11.0792725,28.2223627 10.7777436,28.1817902 10.5585464,28.0024471 L2,21 L10.5585464,13.9975529 C10.8791301,13.7352572 11.3516471,13.7825089 11.6139428,14.1030925 C11.7932859,14.3222897 11.8338584,14.6238186 11.7188335,14.8826247 L9.888,18.9999983 L21,19 C22.0543618,19 22.9181651,19.8158778 22.9945143,20.8507377 L23,21 C23,24.7854517 26.0047834,27.8690987 29.7593502,27.995941 L30,28 C31.1045695,28 32,28.8954305 32,30 L32,42 L28,42 L28,31.8186238 C23.5283164,30.9972407 20.0027593,27.4716836 19.1813762,23 L9.888,22.9999983 L11.7188335,27.1173753 Z" id="primary" fill="#000000" fill-rule="nonzero"></path>
    </g>
</svg>