<?xml version="1.0" encoding="UTF-8"?>
<svg width="48px" height="48px" viewBox="0 0 48 48" version="1.1" xmlns="http://www.w3.org/2000/svg" xmlns:xlink="http://www.w3.org/1999/xlink">
    <!-- Generator: Sketch 58 (84663) - https://sketch.com -->
    <title>rotary_anticlockwise</title>
    <desc>Created with Sketch.</desc>
    <g id="rotary_anticlockwise" stroke="none" stroke-width="1" fill="none" fill-rule="evenodd">
        <path d="M26.5474945,31.6956861 L26.6490356,31.7053572 L37.5621778,33.4903811 L33.6514827,43.8339514 C33.551324,44.0988656 33.3104785,44.2847669 33.0288334,44.3145555 C32.6512437,44.3544917 32.3095122,44.1069077 32.2216216,43.7480861 L32.2041088,43.6476002 L31.7278413,39.1422667 C26.1524338,41.9909515 19.5078138,41.5254714 14.3990993,38.0335986 L14.0882621,37.8160315 L16.4182268,34.5646834 C20.2940407,37.3421496 25.3939421,37.7890301 29.7024664,35.6828877 L26.0867335,33.0519954 C25.857716,32.8853752 25.7420883,32.6039572 25.7878054,32.3244554 C25.8490964,31.9497391 26.1782033,31.6856048 26.5474945,31.6956861 Z M16.9908347,8.50816744 L18.6416024,12.1516501 C14.2983572,14.1194621 11.361403,18.3126394 11.0310934,23.0969774 L15.1173753,21.2811665 C15.3761814,21.1661416 15.6777103,21.2067141 15.8969075,21.3860572 C16.1883471,21.6245079 16.2538926,22.0366951 16.0663348,22.3505268 L16.0024471,22.4414536 L9,31 L1.9975529,22.4414536 C1.81820979,22.2222564 1.77763728,21.9207275 1.89266222,21.6619214 C2.04687127,21.314951 2.43215105,21.1427949 2.78684494,21.2460901 L2.88262473,21.2811665 L7.02248859,23.1214356 C7.34350778,16.8614005 11.0771824,11.3341704 16.666336,8.65930682 L16.9908347,8.50816744 Z M37.0785044,6.02352319 C37.3000389,6.32801987 37.2590383,6.74336732 36.9981026,6.99945491 L36.9132665,7.07123328 L33.2500944,9.73663669 C38.5086896,13.1434604 41.4281679,19.1371858 40.9527902,25.3123642 L40.9209032,25.6758011 L36.9401708,25.2836665 C37.4075941,20.5386446 35.2449204,15.898813 31.2671095,13.2205232 L30.7958912,17.6668381 C30.7661027,17.9484832 30.5802014,18.1893287 30.3152871,18.2894874 C29.9601278,18.423766 29.5668274,18.2708182 29.3909124,17.945962 L29.3485173,17.8531892 L25.4378222,7.50961894 L36.3509644,5.72459509 C36.6304662,5.67887797 36.9118842,5.79450562 37.0785044,6.02352319 Z" id="primary" fill="#000000" fill-rule="nonzero"></path>
    </g>
</svg>