<?xml version="1.0" encoding="UTF-8"?>
<svg width="48px" height="48px" viewBox="0 0 48 48" version="1.1" xmlns="http://www.w3.org/2000/svg" xmlns:xlink="http://www.w3.org/1999/xlink">
    <!-- Generator: Sketch 58 (84663) - https://sketch.com -->
    <title>sharp_right</title>
    <desc>Created with Sketch.</desc>
    <g id="sharp_right" stroke="none" stroke-width="1" fill="none" fill-rule="evenodd">
        <path d="M18.8030016,10.4110233 C20.8432326,10.3963143 22.8080631,11.1611181 24.2991357,12.5425626 L24.5191936,12.7543837 L32.4441129,20.6790233 L35.886395,13.4734011 C36.12441,12.9750365 36.7213637,12.7639815 37.2197283,13.0019965 C37.5425136,13.1561563 37.7583724,13.4709894 37.7858164,13.8276438 L39.1660373,31.7646022 L21.229079,30.3843813 C20.678422,30.3420091 20.2663759,29.861264 20.308748,29.3106071 C20.336192,28.9539527 20.5520509,28.6391196 20.8748362,28.4849598 L28.2441129,24.9650233 L20.2765529,16.9970244 C19.9399227,16.6603942 19.4957809,16.4562788 19.0250972,16.4178658 L18.8475049,16.411293 C17.7931721,16.4191134 16.9354441,17.2413758 16.8667728,18.2767735 L16.8623943,18.4260724 L16.999835,36.9554967 L11,37 L10.8621129,18.4705758 C10.829788,14.0524193 14.3848451,10.4442294 18.8030016,10.4110233 Z" id="primary" fill="#000000" fill-rule="nonzero"></path>
    </g>
</svg>