<?xml version="1.0" encoding="UTF-8"?>
<svg width="48px" height="48px" viewBox="0 0 48 48" version="1.1" xmlns="http://www.w3.org/2000/svg" xmlns:xlink="http://www.w3.org/1999/xlink">
    <!-- Generator: Sketch 58 (84663) - https://sketch.com -->
    <title>sharp_left</title>
    <desc>Created with Sketch.</desc>
    <g id="sharp_left" stroke="none" stroke-width="1" fill="none" fill-rule="evenodd">
        <path d="M29.1969984,10.4110233 C33.6151549,10.4442294 37.170212,14.0524193 37.1378871,18.4705758 L37,37 L31.000165,36.9554967 L31.1376057,18.4260724 C31.1457985,17.3215333 30.2570342,16.4194858 29.1524951,16.411293 C28.6169345,16.4073205 28.1021561,16.6183154 27.7234471,16.9970244 L19.7549627,24.9650233 L27.1251638,28.4849598 C27.4120841,28.6219907 27.6145192,28.8859734 27.6752374,29.1934343 L27.691252,29.3106071 C27.7305976,29.8219314 27.3781232,30.2729746 26.8866823,30.368726 L26.770921,30.3843813 L8.83396269,31.7646022 L10.2141836,13.8276438 C10.2416276,13.4709894 10.4574864,13.1561563 10.7802717,13.0019965 C11.2430388,12.7809825 11.7908139,12.9471769 12.0572746,13.3710652 L12.113605,13.4734011 L15.5549627,20.6790233 L23.4808064,12.7543837 C24.9956424,11.2395478 27.0547558,10.3955681 29.1969984,10.4110233 Z" id="primary" fill="#000000" fill-rule="nonzero"></path>
    </g>
</svg>