<?xml version="1.0" encoding="UTF-8"?>
<svg width="48px" height="48px" viewBox="0 0 48 48" version="1.1" xmlns="http://www.w3.org/2000/svg" xmlns:xlink="http://www.w3.org/1999/xlink">
    <!-- Generator: Sketch 58 (84663) - https://sketch.com -->
    <title>slight_right</title>
    <desc>Created with Sketch.</desc>
    <g id="slight_right" stroke="none" stroke-width="1" fill="none" fill-rule="evenodd">
        <path d="M35.3480962,6.57854357 L33.9678753,24.5155019 C33.9404313,24.8721564 33.7245725,25.1869895 33.4017872,25.3411492 C32.93902,25.5621632 32.391245,25.3959688 32.1247843,24.9720806 L32.0684538,24.8697447 L28.611,17.6305436 L22.0502525,24.1923882 C20.7374979,25.5051428 20,27.2856202 20,29.1421356 L20,42 L14,42 L14,29.1421356 C14,25.6943213 15.3696389,22.3877204 17.8076118,19.9497475 L24.394,13.3625436 L17.0568951,9.85818592 C16.7699748,9.72115503 16.5675396,9.45717237 16.5068215,9.14971147 L16.4908069,9.03253863 C16.4514613,8.52121434 16.8039356,8.07017119 17.2953766,7.9744197 L17.4111378,7.95876444 L35.3480962,6.57854357 Z" id="primary" fill="#000000" fill-rule="nonzero"></path>
    </g>
</svg>