<?xml version="1.0" encoding="UTF-8"?>
<svg width="48px" height="48px" viewBox="0 0 48 48" version="1.1" xmlns="http://www.w3.org/2000/svg" xmlns:xlink="http://www.w3.org/1999/xlink">
    <!-- Generator: Sketch 58 (84663) - https://sketch.com -->
    <title>slight_left</title>
    <desc>Created with Sketch.</desc>
    <g id="slight_left" stroke="none" stroke-width="1" fill="none" fill-rule="evenodd">
        <path d="M12.6519038,6.57854357 L30.5888622,7.95876444 C31.1395191,8.00113663 31.5515653,8.48188171 31.5091931,9.03253863 C31.4817491,9.38919308 31.2658902,9.70402616 30.9431049,9.85818592 L23.6049038,13.3625436 L30.1923882,19.9497475 C32.5432906,22.3006499 33.900806,25.4592434 33.9947728,28.7733004 L34,29.1421356 L34,42 L28,42 L28,29.1421356 C28,27.3887599 27.3421701,25.7032083 26.1631856,24.4154442 L25.9497475,24.1923882 L19.3879038,17.6305436 L15.9315462,24.8697447 C15.6935311,25.3681093 15.0965774,25.5791643 14.5982128,25.3411492 C14.2754275,25.1869895 14.0595687,24.8721564 14.0321247,24.5155019 L12.6519038,6.57854357 Z" id="primary" fill="#000000" fill-rule="nonzero"></path>
    </g>
</svg>