<?xml version="1.0" encoding="UTF-8"?>
<svg width="48px" height="48px" viewBox="0 0 48 48" version="1.1" xmlns="http://www.w3.org/2000/svg" xmlns:xlink="http://www.w3.org/1999/xlink">
    <!-- Generator: Sketch 58 (84663) - https://sketch.com -->
    <title>uturn_left</title>
    <desc>Created with Sketch.</desc>
    <g id="uturn_left" stroke="none" stroke-width="1" fill="none" fill-rule="evenodd">
        <path d="M26,5.5 C33.1797017,5.5 39,11.3202983 39,18.5 L39,42 L33,42 L33,18.5 C33,14.6340068 29.8659932,11.5 26,11.5 C22.1340068,11.5 19,14.6340068 19,18.5 L19,30.731 L26.5629015,28.0574635 C27.0836005,27.8733686 27.6549489,28.1462401 27.8390439,28.6669392 C27.9582801,29.0041903 27.8882948,29.3794461 27.6555078,29.6510448 L15.9481265,43.3103532 L4.24074513,29.6510448 C3.88133355,29.2317099 3.92991101,28.6004111 4.34924591,28.2409995 C4.62084453,28.0082126 4.9961004,27.9382272 5.33335147,28.0574635 L13,30.768 L13,18.5 C13,11.3202983 18.8202983,5.5 26,5.5 Z" id="primary" fill="#000000" fill-rule="nonzero"></path>
    </g>
</svg>