<?xml version="1.0" encoding="UTF-8"?>
<svg width="48px" height="48px" viewBox="0 0 48 48" version="1.1" xmlns="http://www.w3.org/2000/svg" xmlns:xlink="http://www.w3.org/1999/xlink">
    <!-- Generator: Sketch 58 (84663) - https://sketch.com -->
    <title>uturn_right</title>
    <desc>Created with Sketch.</desc>
    <g id="uturn_right" stroke="none" stroke-width="1" fill="none" fill-rule="evenodd">
        <path d="M22,5.5 C14.8202983,5.5 9,11.3202983 9,18.5 L9,42 L15,42 L15,18.5 C15,14.6340068 18.1340068,11.5 22,11.5 C25.8659932,11.5 29,14.6340068 29,18.5 L29,30.731 L21.4370985,28.0574635 C20.9163995,27.8733686 20.3450511,28.1462401 20.1609561,28.6669392 C20.0417199,29.0041903 20.1117052,29.3794461 20.3444922,29.6510448 L32.0518735,43.3103532 L43.7592549,29.6510448 C44.1186664,29.2317099 44.070089,28.6004111 43.6507541,28.2409995 C43.3791555,28.0082126 43.0038996,27.9382272 42.6666485,28.0574635 L35,30.768 L35,18.5 C35,11.3202983 29.1797017,5.5 22,5.5 Z" id="primary" fill="#000000" fill-rule="nonzero"></path>
    </g>
</svg>